<mxfile host="app.diagrams.net" agent="Mozilla/5.0 (X11; Linux x86_64) AppleWebKit/537.36 (KHTML, like Gecko) Chrome/129.0.0.0 Safari/537.36" version="24.8.3">
  <diagram id="C5RBs43oDa-KdzZeNtuy" name="Page-1">
    <mxGraphModel dx="2605" dy="1136" grid="1" gridSize="10" guides="1" tooltips="1" connect="1" arrows="1" fold="1" page="1" pageScale="1" pageWidth="827" pageHeight="1169" math="0" shadow="0">
      <root>
        <mxCell id="WIyWlLk6GJQsqaUBKTNV-0" />
        <mxCell id="WIyWlLk6GJQsqaUBKTNV-1" parent="WIyWlLk6GJQsqaUBKTNV-0" />
        <mxCell id="dR3FfgihSwgP3dYm1Ik4-2" value="&lt;font style=&quot;font-size: 20px;&quot;&gt;&lt;b&gt;shared&lt;/b&gt;&lt;/font&gt;&lt;div&gt;&lt;font style=&quot;font-size: 20px;&quot;&gt;&lt;ul style=&quot;font-size: 16px; text-align: left; text-wrap: nowrap;&quot;&gt;&lt;li&gt;&lt;span style=&quot;background-color: initial;&quot;&gt;All interactive jobs&lt;/span&gt;&lt;/li&gt;&lt;li&gt;&lt;span style=&quot;background-color: initial;&quot;&gt;Low to high CPU efficiency&lt;/span&gt;&lt;/li&gt;&lt;li&gt;&lt;span style=&quot;background-color: initial;&quot;&gt;CPUs are shared (3x over-subscription)&lt;/span&gt;&lt;/li&gt;&lt;li&gt;MaxMemPerCPU: 1.5 GB&lt;/li&gt;&lt;li&gt;Time limit: 7 days&lt;/li&gt;&lt;/ul&gt;&lt;/font&gt;&lt;/div&gt;" style="rounded=1;whiteSpace=wrap;html=1;shadow=0;strokeWidth=1;spacing=6;spacingTop=-4;fontSize=16;fillColor=#dae8fc;strokeColor=#6c8ebf;" parent="WIyWlLk6GJQsqaUBKTNV-1" vertex="1">
          <mxGeometry x="550" y="800" width="330" height="200" as="geometry" />
        </mxCell>
        <mxCell id="dR3FfgihSwgP3dYm1Ik4-28" value="&lt;font style=&quot;font-size: 20px;&quot;&gt;&lt;b&gt;high-mem&lt;/b&gt;&lt;/font&gt;&lt;div style=&quot;&quot;&gt;&lt;ul style=&quot;text-align: left; text-wrap: nowrap;&quot;&gt;&lt;li&gt;High CPU efficiency &lt;b&gt;ONLY&lt;/b&gt;&lt;/li&gt;&lt;li&gt;&lt;span style=&quot;background-color: initial;&quot;&gt;&lt;b&gt;&amp;gt;&lt;/b&gt;5 GB memory per CPU &lt;b&gt;ONLY&lt;/b&gt;&lt;/span&gt;&lt;/li&gt;&lt;li style=&quot;&quot;&gt;&lt;span style=&quot;background-color: initial;&quot;&gt;MaxMemPerCPU: 10.0 GB&lt;/span&gt;&lt;br&gt;&lt;/li&gt;&lt;li style=&quot;&quot;&gt;Time limit: 28 days&lt;/li&gt;&lt;/ul&gt;&lt;/div&gt;" style="rounded=1;whiteSpace=wrap;html=1;shadow=0;strokeWidth=1;spacing=6;spacingTop=-4;fontSize=16;fillColor=#dae8fc;strokeColor=#6c8ebf;" parent="WIyWlLk6GJQsqaUBKTNV-1" vertex="1">
          <mxGeometry x="10" y="860" width="330" height="160" as="geometry" />
        </mxCell>
        <mxCell id="dR3FfgihSwgP3dYm1Ik4-30" value="&lt;font style=&quot;font-size: 20px;&quot;&gt;&lt;b&gt;general&lt;/b&gt;&lt;/font&gt;&lt;div&gt;&lt;font style=&quot;font-size: 20px;&quot;&gt;&lt;ul style=&quot;font-size: 16px; text-align: left; text-wrap: nowrap;&quot;&gt;&lt;li&gt;High CPU efficiency&amp;nbsp;&lt;b&gt;ONLY&lt;/b&gt;&lt;/li&gt;&lt;li&gt;&lt;span style=&quot;background-color: initial;&quot;&gt;MaxMemPerCPU: 5.0 GB&lt;/span&gt;&lt;br&gt;&lt;/li&gt;&lt;li&gt;Time limit: 14 days&lt;/li&gt;&lt;/ul&gt;&lt;/font&gt;&lt;/div&gt;" style="rounded=1;whiteSpace=wrap;html=1;shadow=0;strokeWidth=1;spacing=6;spacingTop=-4;fontSize=16;fillColor=#dae8fc;strokeColor=#6c8ebf;" parent="WIyWlLk6GJQsqaUBKTNV-1" vertex="1">
          <mxGeometry x="280" y="1050" width="280" height="160" as="geometry" />
        </mxCell>
        <mxCell id="dR3FfgihSwgP3dYm1Ik4-54" value="" style="edgeStyle=orthogonalEdgeStyle;rounded=0;orthogonalLoop=1;jettySize=auto;html=1;fontSize=16;entryX=0.5;entryY=0;entryDx=0;entryDy=0;" parent="WIyWlLk6GJQsqaUBKTNV-1" source="dR3FfgihSwgP3dYm1Ik4-44" target="dR3FfgihSwgP3dYm1Ik4-53" edge="1">
          <mxGeometry relative="1" as="geometry">
            <mxPoint x="420" y="290" as="targetPoint" />
          </mxGeometry>
        </mxCell>
        <mxCell id="dR3FfgihSwgP3dYm1Ik4-123" style="edgeStyle=orthogonalEdgeStyle;rounded=0;orthogonalLoop=1;jettySize=auto;html=1;exitX=1;exitY=0.5;exitDx=0;exitDy=0;entryX=0.5;entryY=0;entryDx=0;entryDy=0;" parent="WIyWlLk6GJQsqaUBKTNV-1" source="dR3FfgihSwgP3dYm1Ik4-44" target="dR3FfgihSwgP3dYm1Ik4-46" edge="1">
          <mxGeometry relative="1" as="geometry" />
        </mxCell>
        <mxCell id="dR3FfgihSwgP3dYm1Ik4-44" value="Need a GPU?" style="rhombus;whiteSpace=wrap;html=1;rounded=1;glass=0;strokeWidth=1;shadow=0;fontSize=16;fillColor=#eeeeee;strokeColor=#36393d;" parent="WIyWlLk6GJQsqaUBKTNV-1" vertex="1">
          <mxGeometry x="370" y="140" width="100" height="100" as="geometry" />
        </mxCell>
        <mxCell id="dR3FfgihSwgP3dYm1Ik4-46" value="&lt;b&gt;&lt;font style=&quot;font-size: 20px;&quot;&gt;gpu&lt;/font&gt;&lt;/b&gt;&lt;div&gt;&lt;ul style=&quot;text-align: left; text-wrap: nowrap;&quot;&gt;&lt;li&gt;Jobs that need a GPU&amp;nbsp;&lt;b&gt;ONLY&lt;/b&gt;&lt;/li&gt;&lt;li&gt;No CPU/memory limits&lt;/li&gt;&lt;li&gt;Time limit: 14 days&lt;/li&gt;&lt;/ul&gt;&lt;/div&gt;" style="whiteSpace=wrap;html=1;rounded=1;glass=0;strokeWidth=1;shadow=0;fontSize=16;fillColor=#dae8fc;strokeColor=#6c8ebf;" parent="WIyWlLk6GJQsqaUBKTNV-1" vertex="1">
          <mxGeometry x="540" y="220" width="330" height="130" as="geometry" />
        </mxCell>
        <mxCell id="dR3FfgihSwgP3dYm1Ik4-48" value="Yes" style="text;html=1;align=center;verticalAlign=middle;resizable=0;points=[];autosize=1;strokeColor=none;fillColor=none;fontSize=16;" parent="WIyWlLk6GJQsqaUBKTNV-1" vertex="1">
          <mxGeometry x="470" y="160" width="50" height="30" as="geometry" />
        </mxCell>
        <mxCell id="dR3FfgihSwgP3dYm1Ik4-71" value="" style="edgeStyle=orthogonalEdgeStyle;rounded=0;orthogonalLoop=1;jettySize=auto;html=1;fontSize=16;" parent="WIyWlLk6GJQsqaUBKTNV-1" source="dR3FfgihSwgP3dYm1Ik4-53" target="dR3FfgihSwgP3dYm1Ik4-70" edge="1">
          <mxGeometry relative="1" as="geometry" />
        </mxCell>
        <mxCell id="dR3FfgihSwgP3dYm1Ik4-89" style="edgeStyle=orthogonalEdgeStyle;rounded=0;orthogonalLoop=1;jettySize=auto;html=1;exitX=1;exitY=0.5;exitDx=0;exitDy=0;entryX=0.5;entryY=0;entryDx=0;entryDy=0;fontSize=16;" parent="WIyWlLk6GJQsqaUBKTNV-1" source="dR3FfgihSwgP3dYm1Ik4-53" target="dR3FfgihSwgP3dYm1Ik4-2" edge="1">
          <mxGeometry relative="1" as="geometry" />
        </mxCell>
        <mxCell id="dR3FfgihSwgP3dYm1Ik4-53" value="Interactive job?&lt;div style=&quot;font-size: 16px;&quot;&gt;(shell / code editor / virtual desktop)&lt;/div&gt;" style="rhombus;whiteSpace=wrap;html=1;rounded=1;glass=0;strokeWidth=1;shadow=0;fontSize=16;fillColor=#eeeeee;strokeColor=#36393d;" parent="WIyWlLk6GJQsqaUBKTNV-1" vertex="1">
          <mxGeometry x="315" y="320" width="210" height="150" as="geometry" />
        </mxCell>
        <mxCell id="dR3FfgihSwgP3dYm1Ik4-63" value="No" style="text;html=1;align=center;verticalAlign=middle;resizable=0;points=[];autosize=1;strokeColor=none;fillColor=none;fontSize=16;" parent="WIyWlLk6GJQsqaUBKTNV-1" vertex="1">
          <mxGeometry x="380" y="240" width="40" height="30" as="geometry" />
        </mxCell>
        <mxCell id="dR3FfgihSwgP3dYm1Ik4-91" style="edgeStyle=orthogonalEdgeStyle;rounded=0;orthogonalLoop=1;jettySize=auto;html=1;exitX=1;exitY=0.5;exitDx=0;exitDy=0;endArrow=none;endFill=0;entryX=0.5;entryY=0;entryDx=0;entryDy=0;fontSize=16;" parent="WIyWlLk6GJQsqaUBKTNV-1" source="dR3FfgihSwgP3dYm1Ik4-70" target="dR3FfgihSwgP3dYm1Ik4-2" edge="1">
          <mxGeometry relative="1" as="geometry">
            <mxPoint x="600" y="760" as="targetPoint" />
          </mxGeometry>
        </mxCell>
        <mxCell id="dR3FfgihSwgP3dYm1Ik4-124" style="edgeStyle=orthogonalEdgeStyle;rounded=0;orthogonalLoop=1;jettySize=auto;html=1;exitX=0.5;exitY=1;exitDx=0;exitDy=0;entryX=0.5;entryY=0;entryDx=0;entryDy=0;" parent="WIyWlLk6GJQsqaUBKTNV-1" source="dR3FfgihSwgP3dYm1Ik4-70" target="dR3FfgihSwgP3dYm1Ik4-72" edge="1">
          <mxGeometry relative="1" as="geometry" />
        </mxCell>
        <mxCell id="dR3FfgihSwgP3dYm1Ik4-70" value="&lt;div style=&quot;font-size: 16px;&quot;&gt;&lt;span style=&quot;background-color: initial; font-size: 16px;&quot;&gt;&amp;gt;75% CPU efficiency?&lt;/span&gt;&lt;br style=&quot;font-size: 16px;&quot;&gt;&lt;/div&gt;" style="rhombus;whiteSpace=wrap;html=1;rounded=1;glass=0;strokeWidth=1;shadow=0;fontSize=16;fillColor=#eeeeee;strokeColor=#36393d;" parent="WIyWlLk6GJQsqaUBKTNV-1" vertex="1">
          <mxGeometry x="341.25" y="519" width="157.5" height="140" as="geometry" />
        </mxCell>
        <mxCell id="dR3FfgihSwgP3dYm1Ik4-132" style="edgeStyle=orthogonalEdgeStyle;rounded=0;orthogonalLoop=1;jettySize=auto;html=1;exitX=0;exitY=0.5;exitDx=0;exitDy=0;entryX=0.5;entryY=0;entryDx=0;entryDy=0;" parent="WIyWlLk6GJQsqaUBKTNV-1" source="dR3FfgihSwgP3dYm1Ik4-72" target="dR3FfgihSwgP3dYm1Ik4-28" edge="1">
          <mxGeometry relative="1" as="geometry" />
        </mxCell>
        <mxCell id="dR3FfgihSwgP3dYm1Ik4-139" style="edgeStyle=orthogonalEdgeStyle;rounded=0;orthogonalLoop=1;jettySize=auto;html=1;exitX=0.5;exitY=1;exitDx=0;exitDy=0;entryX=0.5;entryY=0;entryDx=0;entryDy=0;" parent="WIyWlLk6GJQsqaUBKTNV-1" source="dR3FfgihSwgP3dYm1Ik4-72" target="dR3FfgihSwgP3dYm1Ik4-30" edge="1">
          <mxGeometry relative="1" as="geometry" />
        </mxCell>
        <mxCell id="dR3FfgihSwgP3dYm1Ik4-140" style="edgeStyle=orthogonalEdgeStyle;rounded=0;orthogonalLoop=1;jettySize=auto;html=1;exitX=0.5;exitY=1;exitDx=0;exitDy=0;entryX=0;entryY=0.5;entryDx=0;entryDy=0;" parent="WIyWlLk6GJQsqaUBKTNV-1" source="dR3FfgihSwgP3dYm1Ik4-72" target="dR3FfgihSwgP3dYm1Ik4-2" edge="1">
          <mxGeometry relative="1" as="geometry" />
        </mxCell>
        <mxCell id="dR3FfgihSwgP3dYm1Ik4-72" value="&lt;div&gt;&lt;br&gt;&lt;/div&gt;&amp;gt;5GB memory per CPU?" style="rhombus;whiteSpace=wrap;html=1;rounded=1;glass=0;strokeWidth=1;shadow=0;fontSize=16;fillColor=#eeeeee;strokeColor=#36393d;" parent="WIyWlLk6GJQsqaUBKTNV-1" vertex="1">
          <mxGeometry x="337.5" y="710" width="165" height="140" as="geometry" />
        </mxCell>
        <mxCell id="dR3FfgihSwgP3dYm1Ik4-126" style="edgeStyle=orthogonalEdgeStyle;rounded=0;orthogonalLoop=1;jettySize=auto;html=1;entryX=0;entryY=0.5;entryDx=0;entryDy=0;" parent="WIyWlLk6GJQsqaUBKTNV-1" source="dR3FfgihSwgP3dYm1Ik4-76" target="dR3FfgihSwgP3dYm1Ik4-44" edge="1">
          <mxGeometry relative="1" as="geometry">
            <mxPoint x="420" y="90" as="sourcePoint" />
          </mxGeometry>
        </mxCell>
        <mxCell id="dR3FfgihSwgP3dYm1Ik4-76" value="" style="shape=umlActor;verticalLabelPosition=bottom;verticalAlign=top;html=1;outlineConnect=0;fontSize=16;" parent="WIyWlLk6GJQsqaUBKTNV-1" vertex="1">
          <mxGeometry x="170" y="145" width="47.5" height="90" as="geometry" />
        </mxCell>
        <mxCell id="dR3FfgihSwgP3dYm1Ik4-92" value="Yes" style="text;html=1;align=center;verticalAlign=middle;resizable=0;points=[];autosize=1;strokeColor=none;fillColor=none;fontSize=16;" parent="WIyWlLk6GJQsqaUBKTNV-1" vertex="1">
          <mxGeometry x="525" y="360" width="50" height="30" as="geometry" />
        </mxCell>
        <mxCell id="dR3FfgihSwgP3dYm1Ik4-94" value="No" style="text;html=1;align=center;verticalAlign=middle;resizable=0;points=[];autosize=1;strokeColor=none;fillColor=none;fontSize=16;" parent="WIyWlLk6GJQsqaUBKTNV-1" vertex="1">
          <mxGeometry x="498.75" y="550" width="40" height="30" as="geometry" />
        </mxCell>
        <mxCell id="dR3FfgihSwgP3dYm1Ik4-127" value="&lt;font style=&quot;font-size: 16px;&quot;&gt;Job submission&lt;/font&gt;" style="text;html=1;align=center;verticalAlign=middle;resizable=0;points=[];autosize=1;strokeColor=none;fillColor=none;" parent="WIyWlLk6GJQsqaUBKTNV-1" vertex="1">
          <mxGeometry x="218.75" y="160" width="130" height="30" as="geometry" />
        </mxCell>
        <mxCell id="dR3FfgihSwgP3dYm1Ik4-135" value="Yes" style="text;html=1;align=center;verticalAlign=middle;resizable=0;points=[];autosize=1;strokeColor=none;fillColor=none;fontSize=16;" parent="WIyWlLk6GJQsqaUBKTNV-1" vertex="1">
          <mxGeometry x="296.25" y="750" width="50" height="30" as="geometry" />
        </mxCell>
        <mxCell id="dR3FfgihSwgP3dYm1Ik4-137" value="No" style="text;html=1;align=center;verticalAlign=middle;resizable=0;points=[];autosize=1;strokeColor=none;fillColor=none;fontSize=16;" parent="WIyWlLk6GJQsqaUBKTNV-1" vertex="1">
          <mxGeometry x="380" y="470" width="40" height="30" as="geometry" />
        </mxCell>
        <mxCell id="dR3FfgihSwgP3dYm1Ik4-138" value="Yes" style="text;html=1;align=center;verticalAlign=middle;resizable=0;points=[];autosize=1;strokeColor=none;fillColor=none;fontSize=16;" parent="WIyWlLk6GJQsqaUBKTNV-1" vertex="1">
          <mxGeometry x="375" y="659" width="50" height="30" as="geometry" />
        </mxCell>
        <mxCell id="dR3FfgihSwgP3dYm1Ik4-141" value="No" style="text;html=1;align=center;verticalAlign=middle;resizable=0;points=[];autosize=1;strokeColor=none;fillColor=none;fontSize=16;" parent="WIyWlLk6GJQsqaUBKTNV-1" vertex="1">
          <mxGeometry x="380" y="850" width="40" height="30" as="geometry" />
        </mxCell>
        <mxCell id="dR3FfgihSwgP3dYm1Ik4-142" value="&lt;div style=&quot;font-size: 16px; text-wrap: nowrap;&quot;&gt;&lt;span style=&quot;background-color: initial;&quot;&gt;Always consider:&lt;/span&gt;&lt;br&gt;&lt;/div&gt;&lt;div style=&quot;font-size: 16px; text-wrap: nowrap;&quot;&gt;&lt;ul&gt;&lt;li style=&quot;text-align: left;&quot;&gt;Expected CPU efficiency&lt;/li&gt;&lt;li style=&quot;text-align: left;&quot;&gt;Memory per CPU ratio&lt;/li&gt;&lt;/ul&gt;&lt;/div&gt;" style="ellipse;shape=cloud;whiteSpace=wrap;html=1;fillColor=#bac8d3;strokeColor=#23445d;" parent="WIyWlLk6GJQsqaUBKTNV-1" vertex="1">
          <mxGeometry y="240" width="335" height="180" as="geometry" />
        </mxCell>
      </root>
    </mxGraphModel>
  </diagram>
</mxfile>
